<svg width="167" height="75" viewBox="0 0 167 75" fill="none" xmlns="http://www.w3.org/2000/svg">
<path d="M112.676 33.267L97.1949 65.6196H111.365L126.846 33.267L111.365 0.914528H97.1949L112.676 33.267Z" fill="#FFAA53"/>
<path d="M132.517 33.1976L117.036 65.5501H131.207L146.687 33.1976L131.207 0.84507H117.036L132.517 33.1976Z" fill="#FF6C6C"/>
<path d="M152.428 33.1976L136.947 65.5501H151.118L166.599 33.1976L151.118 0.84507H136.947L152.428 33.1976Z" fill="#588FFB"/>
<path d="M89.6753 45.2145L97.6205 41.6725H108.301L111.818 55.5452L109.473 67.4994L89.6753 63.5147V45.2145Z" fill="black"/>
<path d="M23.4766 3.31512L17.3834 43.1821H5.46746L11.5606 8.31179L16.8618 13.8932L0.0629883 17.9092V7.43745L14.6569 3.31512H23.4766Z" fill="black"/>
<path fill-rule="evenodd" clip-rule="evenodd" d="M68.4567 8.69995C67.0192 10.8244 66.238 13.1789 66.113 15.7636H78.1125C78.2999 14.5244 78.8937 13.5684 79.8936 12.8956C80.9248 12.1875 82.456 11.8334 84.4871 11.8334C86.2371 11.8334 87.5807 12.099 88.5182 12.6301C89.4869 13.1258 89.9713 13.887 89.9713 14.9138C89.9713 15.8344 89.5807 16.5602 88.7994 17.0913C88.0495 17.6224 86.5808 17.888 84.3934 17.888H78.5812V26.7574H84.3934C86.0496 26.7574 87.3151 26.8636 88.1901 27.076C89.0963 27.2531 89.7056 27.554 90.0181 27.9789C90.3619 28.4038 90.5337 28.9349 90.5337 29.5722C90.5337 30.6698 89.9869 31.5196 88.8932 32.1215C87.7995 32.688 86.2839 32.9713 84.3465 32.9713C82.0029 32.9713 80.2686 32.6172 79.1437 31.9091C78.05 31.2009 77.4094 30.1918 77.2219 28.8818H65.2225C65.2944 31.1362 65.7984 33.1614 66.7346 34.9574C65.9328 34.4354 65.0753 33.963 64.1619 33.5401C61.2199 32.127 57.6702 31.4204 53.513 31.4204C51.1809 31.4204 48.9767 31.6989 46.9002 32.2559H45.9572L47.1904 31.6717C50.6278 30.043 53.4401 28.3966 55.6275 26.7324C57.8149 25.0683 59.4398 23.3334 60.5023 21.5277C61.5647 19.7219 62.096 17.7745 62.096 15.6855C62.096 12.9946 61.3929 10.6401 59.9867 8.62191C58.5805 6.56832 56.6118 4.97502 54.0807 3.842C51.5496 2.67358 48.581 2.08937 45.1749 2.08937C41.6126 2.08937 38.394 2.72669 35.5191 4.00133C32.6755 5.24056 30.3944 7.04631 28.6757 9.41856C26.957 11.7554 25.9883 14.5525 25.7696 17.8099H37.769C37.8628 16.8186 38.1596 15.9157 38.6596 15.1013C39.1596 14.287 39.8939 13.632 40.8626 13.1363C41.8626 12.6406 43.1437 12.3927 44.7062 12.3927C45.8311 12.3927 46.7998 12.5698 47.6123 12.9238C48.4247 13.2425 49.0341 13.7028 49.4403 14.3047C49.8778 14.9066 50.0965 15.6501 50.0965 16.5353C50.0965 17.3497 49.8622 18.1109 49.3934 18.819C48.956 19.4918 48.1591 20.253 47.0029 21.1028C45.8467 21.9525 44.1749 23.0324 41.9876 24.3425L26.8008 33.5305V42.8779L34.1758 42.8779C34.0789 43.0957 33.985 43.3166 33.8942 43.5407C32.8069 46.1857 32.2632 49.2656 32.2632 52.7803C32.2632 56.295 32.8069 59.393 33.8942 62.0743C34.9814 64.7194 36.4684 66.9478 38.3552 68.7595C40.2739 70.535 42.4644 71.8756 44.9268 72.7815C47.4211 73.6873 50.0593 74.1403 52.8415 74.1403C55.9114 74.1403 58.5656 73.633 60.8041 72.6184C62.9265 71.6565 64.6896 70.3688 66.0933 68.7554L66.6082 73.1619H75.1945V51.3672H55.5277V59.3024H64.3161C64.1923 59.4712 64.0609 59.6342 63.922 59.7916C62.9627 60.8786 61.6995 61.6939 60.1326 62.2374C58.5656 62.7447 56.7748 62.9983 54.7602 62.9983C52.6816 62.9983 50.8748 62.636 49.3398 61.9113C47.8368 61.1866 46.6696 60.0634 45.8382 58.5415C45.0387 57.0197 44.639 55.0993 44.639 52.7803C44.639 50.4976 44.9907 48.6315 45.6943 47.1822C46.4298 45.7328 47.4691 44.6639 48.8122 43.9755C50.1553 43.2508 51.7542 42.8885 53.6089 42.8885C55.1119 42.8885 56.471 43.0877 57.6862 43.4863C58.9014 43.8487 59.9247 44.3922 60.7562 45.1168C61.6196 45.8053 62.1952 46.6568 62.483 47.6713H74.9067C74.4221 44.9871 73.4957 42.5726 72.1273 40.4276C72.8237 40.831 73.5688 41.1958 74.3626 41.522C76.3308 42.3307 78.5309 42.8595 80.9631 43.1085C79.6624 45.9446 79.0121 49.1685 79.0121 52.7803C79.0121 57.0559 79.9235 60.8062 81.7462 64.031C83.569 67.2196 86.1113 69.7016 89.3731 71.4771C92.6669 73.2525 96.5043 74.1403 100.885 74.1403C105.266 74.1403 109.088 73.2525 112.35 71.4771C115.644 69.7016 118.202 67.2196 120.025 64.031C121.847 60.8062 122.759 57.0559 122.759 52.7803C122.759 48.5047 121.847 44.7726 120.025 41.584C118.202 38.3592 115.644 35.8591 112.35 34.0836C109.088 32.3081 105.266 31.4204 100.885 31.4204C97.486 31.4204 94.4138 31.9549 91.669 33.0239V31.3191H102.795C102.808 31.0933 102.814 30.865 102.814 30.6344C102.814 28.333 102.205 26.4741 100.986 25.0579C99.7677 23.6416 98.0177 22.6325 95.7366 22.0306C95.4003 21.9406 95.0535 21.8594 94.6963 21.7868C95.163 21.6547 95.6035 21.5059 96.0178 21.3402C98.1427 20.455 99.6739 19.2689 100.611 17.7818C101.58 16.2947 102.064 14.666 102.064 12.8956C102.064 10.6296 101.361 8.64684 99.9551 6.94732C98.549 5.2478 96.5803 3.92004 94.0492 2.96406C91.5181 2.00808 88.5494 1.53009 85.1434 1.53009C81.0811 1.53009 77.6437 2.18511 74.8314 3.49516C72.0502 4.80521 69.9254 6.54014 68.4567 8.69995ZM91.669 33.0239C90.8764 33.3325 90.1111 33.6858 89.3731 34.0836C86.1113 35.8591 83.569 38.3592 81.7462 41.584C81.4632 42.0791 81.2022 42.5872 80.9631 43.1085C82.045 43.2192 83.1728 43.2746 84.3465 43.2746C87.0718 43.2746 89.5126 43.0117 91.669 42.4858V33.0239ZM34.1758 42.8779C35.2383 40.4901 36.6634 38.4826 38.4511 36.8555C40.4018 35.0438 42.6563 33.685 45.2146 32.7792C45.7668 32.5836 46.3287 32.4092 46.9002 32.2559H51.4374V42.8779L34.1758 42.8779ZM72.1273 40.4276C70.329 39.3858 68.8555 38.0865 67.7067 36.5296C67.3429 36.0267 67.0188 35.5026 66.7346 34.9574C68.5435 36.135 70.0683 37.5649 71.3091 39.2469C71.5974 39.631 71.8702 40.0245 72.1273 40.4276ZM105.922 60.6069C104.515 61.2953 102.836 61.6395 100.885 61.6395C98.9347 61.6395 97.2558 61.2953 95.8488 60.6069C94.4417 59.8822 93.3545 58.8676 92.587 57.5632C91.8515 56.2226 91.4837 54.6283 91.4837 52.7803C91.4837 50.9324 91.8515 49.3562 92.587 48.0518C93.3545 46.7111 94.4417 45.6966 95.8488 45.0081C97.2558 44.2835 98.9347 43.9211 100.885 43.9211C102.836 43.9211 104.515 44.2835 105.922 45.0081C107.329 45.6966 108.4 46.7111 109.136 48.0518C109.903 49.3562 110.287 50.9324 110.287 52.7803C110.287 54.6283 109.903 56.2226 109.136 57.5632C108.4 58.8676 107.329 59.8822 105.922 60.6069Z" fill="black"/>
<path d="M101.226 37.1934L99.3908 35.389L99.7017 37.9439C99.8148 38.8728 99.6747 40.6205 99.0494 42.6327C98.4291 44.6285 97.3547 46.807 95.6713 48.6297C93.2348 51.2677 92.3123 54.7942 92.815 57.95C93.3184 61.1101 95.2692 63.9588 98.6139 65.1045L98.7919 66.1309L99.1783 65.2964L100.207 65.646L100.085 65.168L100.252 65.2101C101.8 65.5992 104.26 65.832 106.464 63.7618L106.49 64.1827L107.975 61.8886C109.05 60.2279 109.541 58.6039 109.247 56.5977C108.964 54.6669 107.962 52.451 106.264 49.5554L106.119 49.6125L105.888 49.0657C105.855 48.9893 105.805 48.8781 105.737 48.7727C106.398 46.7148 106.005 44.6267 105.225 42.8193C104.181 40.3983 102.395 38.3425 101.226 37.1934ZM104.331 49.725C104.313 49.7561 104.295 49.7872 104.276 49.8183C104.294 49.8399 104.319 49.8677 104.352 49.8973C104.392 49.9338 104.526 50.0509 104.743 50.1008C104.773 50.1077 104.804 50.113 104.834 50.1167L104.911 50.0866L104.499 49.654L104.331 49.725ZM99.9827 63.5593L100.003 63.5154L100.003 63.5145L100.003 63.5145L100.019 63.4805C101.299 60.717 103.693 55.5471 104.854 51.3536C105.431 54.1534 106.117 58.1628 106.321 61.4551L106.362 62.1102C106.191 61.8982 105.983 61.6829 105.739 61.4959C105.304 61.1627 104.692 60.8755 103.957 60.9588C103.568 61.0028 103.185 61.1622 102.853 61.3371C102.508 61.5187 102.153 61.7527 101.809 62.0056C101.175 62.4722 100.528 63.0398 99.9827 63.5593ZM105.254 49.9171L105.288 49.9386L105.23 49.9612C105.238 49.9465 105.246 49.9318 105.254 49.9171Z" fill="#EBD7FF" stroke="black" stroke-width="1.8001"/>
<path fill-rule="evenodd" clip-rule="evenodd" d="M104.23 49.122C105.016 47.4812 105.199 46.2616 105.053 45.3482L105.702 45.2144C105.865 46.2327 105.685 47.4532 105.06 48.9266H105.472L105.533 49.2127C105.919 51.0249 106.473 53.8554 106.882 56.4602C107.086 57.7621 107.255 59.0133 107.347 60.0551C107.438 61.0764 107.462 61.9558 107.347 62.4768C107.246 62.9353 107.148 63.2833 107.051 63.5403C106.959 63.7859 106.853 63.9929 106.715 64.1205C106.641 64.1894 106.544 64.2472 106.428 64.2579C106.309 64.2688 106.207 64.2271 106.128 64.1695C105.989 64.0668 105.906 63.8998 105.859 63.7832L105.849 63.76L105.843 63.7354C105.764 63.4431 105.528 62.9652 105.149 62.6353C104.788 62.3199 104.298 62.1381 103.657 62.3907C102.95 62.6693 102.157 63.2555 101.453 63.8861C100.753 64.5135 100.168 65.1602 99.8806 65.5306L99.6238 65.8614L98.7133 64.6005L98.6995 64.5001C98.2751 61.4228 98.6244 59.0484 100.139 55.9428C100.793 54.6028 101.537 53.4867 102.253 52.4159L102.262 52.4028C102.978 51.3316 103.662 50.3078 104.23 49.122ZM103.618 51.5915C103.35 52.0131 103.075 52.4243 102.801 52.835L102.779 52.8673C102.061 53.9416 101.344 55.0178 100.717 56.3045C99.5706 58.6543 99.1325 60.5273 99.1984 62.647C100.42 60.1933 102.461 55.6353 103.618 51.5915ZM99.3774 64.3393L99.5047 63.5457C100.873 60.8792 103.769 54.5263 104.783 49.6743H104.952C105.332 51.4794 105.847 54.1383 106.232 56.591C106.435 57.8844 106.6 59.1148 106.691 60.1301C106.783 61.1659 106.79 61.9191 106.707 62.2954C106.61 62.7341 106.522 63.0406 106.444 63.2476C106.433 63.2758 106.423 63.3016 106.413 63.3254C106.268 62.9214 105.98 62.4157 105.552 62.0427C105.036 61.5933 104.317 61.3389 103.44 61.6845C102.629 62.0041 101.767 62.6515 101.044 63.2996C100.484 63.8011 99.9911 64.3179 99.6491 64.7156L99.3774 64.3393Z" fill="black"/>
<path d="M105.548 48.6061L104.96 48.727L105.548 48.6061L105.548 48.6062L105.548 48.6064L105.548 48.6071L105.548 48.6098L105.551 48.6202L105.559 48.6609L105.591 48.8181C105.618 48.9554 105.658 49.156 105.708 49.4101C105.808 49.9182 105.948 50.6403 106.105 51.4971C106.625 54.3184 107.352 58.6452 107.521 61.5872C107.563 62.3286 107.572 63.0006 107.528 63.5473C107.506 63.8207 107.471 64.0764 107.415 64.3006C107.361 64.5168 107.277 64.7475 107.135 64.937L106.226 66.1448L106.059 64.6435L106.059 64.6432L106.059 64.6428L106.059 64.6427L106.059 64.6426L106.059 64.6423L106.058 64.6351C106.057 64.6274 106.055 64.6146 106.053 64.5973C106.048 64.5625 106.04 64.5095 106.027 64.4421C106.002 64.3069 105.96 64.1166 105.896 63.9011C105.763 63.4586 105.548 62.9631 105.222 62.6054C104.945 62.3018 104.595 62.1024 104.112 62.1024C103.848 62.1024 103.412 62.2708 102.815 62.6857C102.242 63.0834 101.609 63.6442 100.97 64.2801C99.9633 65.2824 98.9766 66.4363 98.2382 67.3449C97.8699 67.7981 97.5652 68.1879 97.353 68.464C97.2469 68.602 97.1639 68.7115 97.1078 68.7861L97.044 68.8712L97.0281 68.8927L97.0242 68.8979L97.0234 68.8991L97.0232 68.8993L97.0232 68.8993L97.0227 68.899L96.0144 68.2542L96.5405 68.5429L96.0144 68.2542L96.0145 68.2541L96.0147 68.2538L96.0155 68.2523L96.0188 68.2462L96.0321 68.2221L96.0837 68.1277C96.1289 68.045 96.1952 67.9237 96.2793 67.7693C96.4474 67.4606 96.6868 67.0198 96.9714 66.492C97.5407 65.4361 98.2903 64.0332 99.0127 62.6427C99.9264 60.8841 100.783 59.1711 101.184 58.1998C102.273 55.5581 103.082 53.1099 103.614 51.3435C103.869 50.4936 104.061 49.8026 104.188 49.325C104.251 49.0862 104.298 48.9008 104.33 48.7757C104.346 48.7131 104.357 48.6657 104.365 48.6341L104.374 48.5988L104.376 48.5903L104.376 48.5884L104.376 48.5881L104.376 48.5881L104.376 48.588L104.376 48.5881L105.548 48.6061ZM103.339 59.5463C103.584 59.4863 103.844 59.4494 104.112 59.4494C104.367 59.4494 104.61 59.4725 104.841 59.5157C104.737 58.6175 104.606 57.6589 104.46 56.6946C104.156 57.5209 103.821 58.3858 103.455 59.2726C103.419 59.3596 103.38 59.451 103.339 59.5463Z" fill="#EBD7FF" stroke="black" stroke-width="1.20007"/>
</svg>
