<svg width="600" height="264" viewBox="0 0 600 264" fill="none" xmlns="http://www.w3.org/2000/svg">
<path d="M280.108 0.282898L351.462 131.888L333.624 164.79L337.823 235.223L333.624 259.381L312.765 263.494H345.422L416.776 131.888L345.422 0.282898H280.108Z" fill="#FFAA53"/>
<path d="M442.913 131.605L371.558 263.211H436.872L508.226 131.605L436.872 -6.10352e-05H371.558L442.913 131.605Z" fill="#FF6C6C"/>
<path d="M280.108 -6.10352e-05L351.462 131.605L333.624 164.507L322.254 189.981L322.254 200.355L315.785 224.994L297.947 230.309L280.108 263.211H345.422L416.776 131.605L345.422 -6.10352e-05H280.108Z" fill="#588FFB"/>
<path d="M534.686 131.605L463.332 263.211H528.646L600 131.605L528.646 -6.10352e-05H463.332L534.686 131.605Z" fill="#FFAA53"/>
<path d="M290.138 251.683C274.786 251.683 261.339 248.938 249.797 243.447C238.367 237.956 229.459 230.28 223.071 220.419C216.684 210.446 213.491 198.849 213.491 185.626C213.491 172.403 221.447 176.829 227.834 166.968C234.222 156.995 243.13 149.263 254.56 143.773C266.102 138.282 256.327 134.867 271.679 134.867C278.263 134.867 274.2 134.58 274.2 134.58L317.945 135.877C317.945 135.877 327.363 130.556 330.31 127.804C341.852 133.295 350.816 141.027 357.204 151C363.591 160.861 366.785 172.403 366.785 185.626C366.785 198.849 363.591 210.446 357.204 220.419C350.816 230.28 341.852 237.956 330.31 243.447C318.88 248.938 305.489 251.683 290.138 251.683ZM274.2 235.255C274.2 235.255 282.803 225.301 287.733 223.172C304.65 224.139 306.1 221.239 307.549 220.419L310.449 225.105L312.383 220.419L313.349 213.989L318.666 204.806V199.49L317.699 196.106C317.699 196.106 316.039 188.541 313.349 184.507C307.787 177.257 305.133 175.324 307.066 161.791C307.066 160.341 294.569 137.141 287.733 137.141C287.733 137.141 290.138 151 280 166.141C280 166.141 272.54 173.594 269.851 177.74C267.273 181.774 265.017 187.89 265.017 187.89C264.051 191.991 263.567 200.94 264.051 203.356C265.501 207.706 267.434 217.372 280.484 222.206L274.2 235.255Z" fill="black"/>
<path fill-rule="evenodd" clip-rule="evenodd" d="M306.361 181.994C305.259 176.712 304.415 173.091 304.415 173.091C304.415 173.091 304.331 176.418 302.524 181.718C300.648 187.222 297.869 194.877 294.017 203.118C292.573 206.209 289.408 212.089 286.214 217.516C281.137 226.14 274.913 234.374 274.913 234.374C274.913 234.374 281.746 226.206 288.952 219.875C293.512 215.87 298.222 212.6 301.445 212.6C303.828 212.6 305.59 213.507 306.886 214.76C309.786 217.565 310.357 222.106 310.357 222.106C311.384 220.901 311.583 217.48 311.291 212.969C310.708 204.001 308.182 190.727 306.361 181.994ZM303.427 190.218C303.815 192.241 304.204 194.348 304.574 196.476C305.335 200.845 306.006 205.235 306.434 209.111C305.012 208.489 303.358 208.107 301.445 208.107C299.493 208.107 297.623 208.725 296.039 209.454C295.517 209.693 294.995 209.96 294.475 210.249C295.596 208.209 296.543 206.398 297.198 204.997C299.678 199.69 301.753 194.636 303.427 190.218ZM285.943 136.164L288.543 135.157C297.606 144.353 303.259 151.274 306.229 157.808C308.77 163.397 308.013 168.641 307.326 171.172V173.922C307.808 174.659 308.482 175.719 309.161 176.787L309.235 176.903C310.071 178.218 310.907 179.531 311.432 180.319C312.452 181.849 314.543 185.546 316.379 189.586C317.3 191.612 318.17 193.752 318.812 195.773C319.447 197.771 319.892 199.751 319.892 201.423C319.892 206.635 317.58 210.291 314.091 214.722C314.084 215.73 314.057 217.083 313.994 218.362C313.957 219.116 313.907 219.858 313.84 220.496C313.777 221.096 313.687 221.726 313.535 222.181C313.275 222.961 312.817 223.702 312.405 224.274C311.984 224.858 311.547 225.352 311.251 225.648L309.118 227.781L308.785 224.783C308.709 224.098 308.547 222.989 308.314 221.923C308.271 221.726 308.227 221.538 308.182 221.36C305.554 223.383 302.129 224.335 298.838 224.719C294.744 225.197 290.581 224.829 287.72 224.306C287.646 224.293 287.573 224.279 287.501 224.265L275.37 236.667L272.456 234.772L279.581 223.383C275.705 221.626 272.122 218.855 270.627 217.516C265.657 213.591 263.518 208.016 262.656 203.118C261.79 198.203 262.179 193.814 262.388 192.068C262.89 187.867 265.207 183.313 267.533 179.656C269.878 175.969 272.364 172.99 273.417 171.9C275.313 169.937 278.818 165.579 280.563 163.321C282.388 160.959 283.329 159.403 283.971 158.039C284.445 157.032 284.758 156.134 285.148 155.02C285.303 154.575 285.47 154.096 285.664 153.562C286.261 151.921 287.371 145.893 286.073 136.371L285.943 136.164ZM308.863 181.692C311.203 193.168 312.73 201.309 313.719 210.387C315.884 207.3 316.992 204.738 316.992 201.423C316.992 200.195 316.652 198.55 316.049 196.652C315.452 194.776 314.631 192.747 313.739 190.786C311.951 186.851 309.933 183.298 309.02 181.928C308.97 181.853 308.918 181.774 308.863 181.692ZM304.526 170.418C305.107 168.284 305.758 163.779 303.59 159.008C301.157 153.656 296.686 147.848 289.397 140.202C289.962 147.669 289.076 152.665 288.389 154.553C288.227 155 288.076 155.431 287.929 155.852C287.52 157.024 287.138 158.121 286.595 159.274C285.836 160.886 284.767 162.623 282.857 165.094C281.117 167.346 277.523 171.823 275.503 173.915C274.599 174.851 272.231 177.673 269.98 181.212C267.71 184.781 265.689 188.88 265.267 192.412C265.074 194.031 264.716 198.1 265.511 202.615C266.307 207.133 268.228 211.943 272.456 215.266L272.494 215.296L272.53 215.328C273.945 216.602 277.522 219.35 281.19 220.923L282.526 219.052C281.867 216.653 281.873 213.457 282.294 210.271C282.766 206.696 283.792 202.898 285.231 199.839C286.549 197.039 290.253 190.181 294.62 185.02C298.714 180.181 302.874 173.369 304.526 170.418ZM284.906 214.948C284.879 213.648 284.966 212.191 285.169 210.651C285.61 207.315 286.565 203.815 287.855 201.074C289.116 198.396 292.693 191.786 296.833 186.894C297.493 186.114 298.153 185.287 298.803 184.436C294.557 197.347 290.55 204.853 284.906 214.948ZM306.938 218.626C306.495 218.01 305.896 217.326 305.189 216.762C304.111 215.902 302.95 215.444 301.77 215.645C299.936 215.957 297.258 217.396 294.666 219.184C293.357 220.087 292.146 221.025 291.162 221.858C293.391 222.076 295.975 222.133 298.502 221.838C301.852 221.448 304.887 220.463 306.938 218.626Z" fill="black"/>
<path fill-rule="evenodd" clip-rule="evenodd" d="M3.02493 54.3385C3.44948 46.5905 6.10293 39.5323 10.9853 33.164C15.9738 26.6896 23.1911 21.4889 32.6374 17.5618C42.1898 13.6347 53.865 11.6711 67.6629 11.6711C79.2319 11.6711 89.315 13.104 97.9122 15.9697C106.509 18.8354 113.196 22.8156 117.972 27.9102C122.748 33.0048 125.137 38.9486 125.137 45.7414C125.137 51.0483 123.491 55.9306 120.201 60.3884C117.017 64.8462 111.816 68.4018 104.599 71.0552C103.191 71.552 101.695 71.9983 100.11 72.3941C101.324 72.6116 102.501 72.8552 103.644 73.1249C111.392 74.9293 117.335 77.9542 121.475 82.1997C125.614 86.4452 127.684 92.0175 127.684 98.9164C127.684 106.24 125.243 112.767 120.36 118.499C120.016 118.895 119.661 119.286 119.294 119.671C110.698 120.041 102.62 121.408 95.06 123.77C86.0954 126.572 78.1954 130.774 71.3599 136.377C71.2909 136.432 71.222 136.488 71.1533 136.543C71.0927 136.593 71.0321 136.642 70.9716 136.691C69.0141 136.769 67.009 136.808 64.9564 136.808C52.0076 136.808 40.7039 135.056 31.0453 131.554C21.3868 128.051 13.851 123.063 8.43796 116.588C3.13107 110.114 0.318413 102.472 0 93.6626H40.7569C41.3938 97.5897 43.5696 100.615 47.2844 102.737C51.1054 104.86 56.996 105.922 64.9564 105.922C71.5369 105.922 76.6846 105.072 80.3994 103.374C84.1143 101.57 85.9717 99.0226 85.9717 95.7323C85.9717 93.8218 85.3879 92.2297 84.2204 90.9561C83.159 89.6824 81.0893 88.7803 78.0113 88.2496C75.0395 87.6127 70.7409 87.2943 65.1156 87.2943H45.3739V60.7068H65.1156C72.5452 60.7068 77.5337 59.9108 80.081 58.3187C82.7345 56.7266 84.0612 54.5508 84.0612 51.7912C84.0612 48.7132 82.4161 46.4313 79.1258 44.9453C75.9417 43.3533 71.3777 42.5572 65.434 42.5572C58.535 42.5572 53.3343 43.6186 49.8317 45.7414C46.4353 47.758 44.4187 50.6237 43.7819 54.3385H3.02493ZM175.831 133.942C179.88 136.832 183.436 140.109 186.498 143.772C192.886 151.28 197.088 159.965 199.105 169.826H155.571C154.562 166.688 152.545 164.055 149.52 161.926C146.606 159.684 143.02 158.004 138.762 156.883C134.504 155.65 129.742 155.034 124.475 155.034C117.976 155.034 112.373 156.155 107.666 158.396C102.96 160.525 99.3181 163.831 96.7408 168.313C94.2756 172.795 93.0429 178.566 93.0429 185.626C93.0429 192.797 94.4436 198.736 97.2451 203.443C100.159 208.149 104.249 211.623 109.515 213.864C114.894 216.105 121.225 217.226 128.509 217.226C135.569 217.226 141.844 216.441 147.335 214.873C152.825 213.192 157.252 210.67 160.613 207.309C161.1 206.822 161.56 206.318 161.994 205.796H131.198V181.255H200.113V248.658H170.026L168.222 235.03C163.303 240.02 157.125 244.002 149.688 246.977C141.844 250.114 132.543 251.683 121.786 251.683C112.037 251.683 102.792 250.283 94.0514 247.481C85.423 244.68 77.7471 240.534 71.0237 235.043C64.4124 229.44 59.2017 222.548 55.3918 214.368C51.5819 206.076 49.6769 196.495 49.6769 185.626C49.6769 174.756 51.5819 165.231 55.3918 157.051C59.1293 148.917 64.3226 142.13 70.9716 136.691C81.7684 136.264 91.1201 134.657 99.0266 131.872C107.708 128.814 114.464 124.747 119.294 119.671C120.891 119.602 122.506 119.568 124.139 119.568C126.34 119.568 128.494 119.618 130.598 119.718V133.942H175.831ZM239.348 133.942H175.831C171.582 130.91 166.789 128.304 161.454 126.123C152.703 122.414 142.417 120.279 130.598 119.718V105.922L182.181 78.3788C189.611 74.4517 195.289 71.2144 199.216 68.6671C203.143 66.1198 205.85 63.8379 207.336 61.8213C208.928 59.6985 209.724 57.4165 209.724 54.9754C209.724 52.3219 208.981 50.093 207.495 48.2887C206.115 46.4843 204.045 45.1045 201.286 44.1493C198.526 43.0879 195.236 42.5572 191.415 42.5572C186.108 42.5572 181.757 43.3002 178.36 44.7861C175.07 46.2721 172.576 48.2356 170.877 50.6768C169.179 53.118 168.171 55.8245 167.852 58.7963H127.096C127.839 49.0317 131.129 40.6468 136.966 33.6417C142.804 26.5304 150.552 21.1174 160.211 17.4026C169.975 13.5816 180.907 11.6711 193.007 11.6711C204.576 11.6711 214.659 13.4224 223.256 16.925C231.854 20.3214 238.54 25.0976 243.317 31.2536C248.093 37.3034 250.481 44.3616 250.481 52.4281C250.481 58.6902 248.676 64.5278 245.068 69.9408C241.459 75.3538 235.94 80.5546 228.51 85.5431C221.081 90.5315 211.528 95.4669 199.853 100.349L195.664 102.101H253.506V126.161C252.248 126.678 251.012 127.226 249.797 127.804C246.042 129.608 242.559 131.654 239.348 133.942ZM319.396 122.896C328.275 125.933 330.683 127.804 330.683 127.804L321.606 139.405H285.944L213.491 185.626C213.491 172.403 216.684 160.861 223.072 151C227.36 144.303 232.786 138.617 239.348 133.942H253.506V126.161C261.09 123.042 269.442 121.029 278.563 120.123L275.037 137.929H316.792L319.396 122.896ZM319.396 122.896C319.061 122.781 318.717 122.665 318.364 122.547C308.638 119.305 290.138 119.568 290.138 119.568C286.151 119.568 282.292 119.753 278.563 120.123L292.012 52.193L256.099 59.7702V27.3855L307.238 14.6368H338.143L319.396 122.896Z" fill="black"/>
</svg>
