<svg width="604" height="235" viewBox="0 0 604 235" fill="none" xmlns="http://www.w3.org/2000/svg">
<path d="M352.108 0.222366L408.227 103.729L394.197 129.605L397.499 185L394.197 204L377.792 207.235H403.476L459.596 103.729L403.476 0.222366H352.108Z" fill="#FFAA53"/>
<path d="M480.151 103.506L424.032 207.013H475.401L531.52 103.506L475.401 1.52588e-05H424.032L480.151 103.506Z" fill="#FF6C6C"/>
<path d="M552.331 103.506L496.211 207.013H547.58L603.699 103.506L547.58 3.05176e-05H496.211L552.331 103.506Z" fill="#588FFB"/>
<path fill-rule="evenodd" clip-rule="evenodd" d="M382.27 162.4C381.13 156.936 380.257 153.19 380.257 153.19C380.257 153.19 379.329 156.632 377.46 162.114C375.519 167.809 372.563 175.704 368.579 184.229C367.084 187.427 363.933 192.982 360.628 198.596C355.376 207.517 349.736 216.588 349.736 216.588C349.736 216.588 356.805 208.138 364.26 201.589C368.977 197.445 373.849 194.063 377.184 194.063C379.65 194.063 381.472 195.001 382.813 196.298C385.813 199.199 386.403 203.897 386.403 203.897C387.466 202.65 387.672 199.111 387.369 194.444C386.767 185.167 384.154 171.434 382.27 162.4ZM379.234 170.908C379.636 173.001 380.038 175.181 380.421 177.382C381.208 181.902 381.903 186.443 382.345 190.454C380.874 189.81 379.163 189.414 377.184 189.414C375.165 189.414 373.23 190.053 371.591 190.808C371.052 191.056 370.512 191.332 369.973 191.63C371.133 189.52 372.113 187.646 372.79 186.197C375.356 180.707 377.502 175.478 379.234 170.908ZM360.673 110.738L363.836 113.947C373.212 123.46 379.061 130.62 382.134 137.379C384.762 143.161 383.979 148.586 383.268 151.205V154.05C383.767 154.812 384.464 155.909 385.166 157.013L385.243 157.134C386.108 158.494 386.973 159.853 387.516 160.668C388.571 162.251 390.734 166.075 392.634 170.254C393.586 172.35 394.486 174.565 395.151 176.655C395.808 178.722 396.268 180.77 396.268 182.5C396.268 187.892 393.876 191.674 390.266 196.258C390.259 197.301 390.231 198.7 390.166 200.024C390.128 200.803 390.076 201.571 390.007 202.232C389.941 202.851 389.848 203.503 389.691 203.974C389.422 204.781 388.949 205.548 388.522 206.14C388.087 206.743 387.635 207.255 387.329 207.561L385.122 209.767L384.777 206.666C384.698 205.957 384.531 204.81 384.29 203.708C384.245 203.504 384.2 203.309 384.154 203.125C381.435 205.218 377.891 206.202 374.487 206.6C370.252 207.094 365.945 206.714 362.985 206.173C362.909 206.159 362.833 206.145 362.759 206.131L350.969 217.92L347.955 215.96L354.565 205.217C350.556 203.4 346.848 200.533 345.302 199.148C340.161 195.088 337.948 189.321 337.056 184.253C336.16 179.169 336.563 174.629 336.779 172.822C337.298 168.476 339.695 163.765 342.101 159.981C344.527 156.167 347.1 153.086 348.189 151.958C350.15 149.928 353.776 145.419 355.581 143.083C357.469 140.639 358.443 139.029 359.107 137.618C359.597 136.577 359.921 135.648 360.324 134.495C360.484 134.035 360.657 133.54 360.858 132.987C361.476 131.289 362.625 125.053 361.282 115.203L360.673 110.738ZM384.858 162.087C387.278 173.96 388.858 182.382 389.881 191.773C392.121 188.579 393.268 185.929 393.268 182.5C393.268 181.23 392.916 179.528 392.292 177.564C391.675 175.623 390.825 173.525 389.902 171.496C388.052 167.425 385.965 163.749 385.02 162.332C384.968 162.255 384.914 162.173 384.858 162.087ZM380.371 150.425C380.972 148.217 381.646 143.557 379.402 138.621C376.886 133.084 372.261 127.076 364.72 119.166C365.305 126.891 364.388 132.059 363.678 134.013C363.51 134.475 363.354 134.921 363.202 135.356C362.779 136.568 362.383 137.703 361.821 138.896C361.036 140.563 359.93 142.361 357.955 144.917C356.155 147.247 352.437 151.878 350.347 154.042C349.411 155.011 346.961 157.93 344.633 161.591C342.285 165.283 340.194 169.524 339.757 173.178C339.557 174.853 339.188 179.062 340.01 183.733C340.834 188.407 342.82 193.383 347.195 196.821L347.234 196.852L347.271 196.885C348.735 198.202 352.435 201.046 356.229 202.673L357.612 200.737C356.93 198.255 356.937 194.949 357.372 191.654C357.86 187.955 358.922 184.026 360.411 180.861C361.774 177.965 365.606 170.87 370.123 165.531C374.359 160.525 378.662 153.478 380.371 150.425ZM360.074 196.492C360.046 195.147 360.136 193.639 360.346 192.046C360.802 188.595 361.791 184.974 363.125 182.139C364.429 179.368 368.13 172.53 372.413 167.469C373.096 166.662 373.778 165.807 374.451 164.927C370.058 178.284 365.913 186.048 360.074 196.492ZM382.866 200.297C382.408 199.659 381.789 198.952 381.057 198.368C379.942 197.478 378.741 197.005 377.52 197.213C375.623 197.536 372.852 199.025 370.171 200.874C368.817 201.808 367.564 202.779 366.546 203.64C368.852 203.865 371.526 203.925 374.14 203.62C377.605 203.216 380.745 202.197 382.866 200.297Z" fill="white"/>
<path d="M84.8756 7.90247L62.7876 135.45H19.5915L41.6795 23.8884L60.8967 41.7451L0 54.5936V21.0911L52.9037 7.90247H84.8756Z" fill="black"/>
<path fill-rule="evenodd" clip-rule="evenodd" d="M247.929 25.1301C242.718 31.9268 239.886 39.4598 239.433 47.729H282.932C283.611 43.7643 285.763 40.7058 289.388 38.5535C293.127 36.288 298.677 35.1552 306.04 35.1552C312.384 35.1552 317.255 36.0048 320.653 37.704C324.165 39.2898 325.92 41.7253 325.92 45.0104C325.92 47.9556 324.504 50.2778 321.673 51.9769C318.954 53.6761 313.63 54.5257 305.7 54.5257H284.631V82.9018H305.7C311.704 82.9018 316.292 83.2416 319.464 83.9212C322.749 84.4876 324.958 85.4505 326.09 86.8098C327.336 88.1692 327.959 89.8683 327.959 91.9073C327.959 95.4189 325.977 98.1376 322.012 100.063C318.048 101.876 312.554 102.782 305.53 102.782C297.035 102.782 290.748 101.649 286.67 99.3837C282.705 97.1181 280.383 93.8897 279.703 89.6984H236.204C236.465 96.9107 238.292 103.39 241.686 109.136C238.78 107.466 235.671 105.955 232.361 104.602C221.696 100.081 208.828 97.8204 193.758 97.8204C185.305 97.8204 177.314 98.7114 169.787 100.493H166.368L170.838 98.6242C183.299 93.4134 193.494 88.146 201.423 82.8219C209.353 77.4979 215.243 71.9473 219.095 66.1701C222.946 60.393 224.872 54.1627 224.872 47.4793C224.872 38.8702 222.323 31.3372 217.226 24.8804C212.128 18.3103 204.992 13.2128 195.816 9.58792C186.641 5.84976 175.879 3.98068 163.532 3.98068C150.618 3.98068 138.951 6.01967 128.529 10.0977C118.221 14.0624 109.952 19.8395 103.721 27.4291C97.4911 34.9055 93.9795 43.8544 93.1865 54.276H136.685C137.025 51.1042 138.101 48.2156 139.914 45.6102C141.726 43.0048 144.388 40.9092 147.9 39.3233C151.525 37.7374 156.169 36.9445 161.833 36.9445C165.911 36.9445 169.422 37.5109 172.368 38.6436C175.313 39.6631 177.522 41.1357 178.994 43.0615C180.58 44.9872 181.373 47.366 181.373 50.198C181.373 52.8033 180.524 55.2388 178.824 57.5044C177.239 59.6566 174.35 62.0921 170.159 64.8108C165.967 67.5294 159.907 70.9844 151.978 75.1757L96.9247 104.571V134.477L123.66 134.477C123.308 135.173 122.968 135.88 122.639 136.597C118.697 145.06 116.726 154.913 116.726 166.158C116.726 177.402 118.697 187.314 122.639 195.892C126.58 204.355 131.97 211.484 138.81 217.28C145.765 222.961 153.706 227.25 162.632 230.148C171.675 233.046 181.238 234.495 191.324 234.495C202.452 234.495 212.074 232.872 220.189 229.626C227.883 226.549 234.274 222.429 239.363 217.267L241.229 231.365H272.355V161.637H201.061V187.024H232.92C232.471 187.564 231.995 188.086 231.491 188.589C228.014 192.067 223.435 194.675 217.754 196.414C212.074 198.037 205.582 198.848 198.279 198.848C190.744 198.848 184.194 197.689 178.63 195.371C173.182 193.052 168.95 189.459 165.936 184.59C163.038 179.721 161.589 173.577 161.589 166.158C161.589 158.855 162.864 152.884 165.415 148.248C168.081 143.611 171.848 140.191 176.717 137.988C181.586 135.67 187.382 134.51 194.106 134.51C199.554 134.51 204.481 135.148 208.886 136.423C213.291 137.582 217.001 139.321 220.015 141.64C223.145 143.842 225.232 146.567 226.275 149.812H271.312C269.555 141.225 266.197 133.5 261.237 126.638C263.761 127.928 266.461 129.095 269.338 130.139C276.473 132.726 284.449 134.418 293.267 135.214C288.551 144.288 286.194 154.603 286.194 166.158C286.194 179.837 289.498 191.835 296.105 202.152C302.713 212.354 311.929 220.295 323.753 225.975C335.693 231.655 349.604 234.495 365.486 234.495C381.368 234.495 395.221 231.655 407.045 225.975C418.985 220.295 428.259 212.354 434.867 202.152C441.474 191.835 444.778 179.837 444.778 166.158C444.778 152.479 441.474 140.539 434.867 130.337C428.259 120.02 418.985 112.021 407.045 106.341C395.221 100.661 381.368 97.8204 365.486 97.8204C353.162 97.8204 342.025 99.5306 332.075 102.951V97.4963H372.408C372.454 96.7736 372.478 96.0434 372.478 95.3057C372.478 87.9426 370.269 81.9955 365.851 77.4644C361.433 72.9333 355.089 69.7049 346.82 67.7792C345.601 67.4913 344.344 67.2314 343.049 66.9992C344.741 66.5767 346.338 66.1004 347.84 65.5703C355.543 62.7383 361.093 58.9435 364.491 54.1859C368.003 49.4282 369.759 44.2174 369.759 38.5535C369.759 31.3038 367.21 24.9602 362.113 19.5229C357.015 14.0856 349.879 9.83764 340.703 6.77914C331.528 3.72065 320.766 2.19141 308.419 2.19141C293.693 2.19141 281.232 4.28704 271.037 8.47832C260.956 12.6696 253.253 18.2202 247.929 25.1301ZM332.075 102.951C329.202 103.938 326.428 105.068 323.753 106.341C311.929 112.021 302.713 120.02 296.105 130.337C295.079 131.921 294.133 133.547 293.267 135.214C297.188 135.569 301.276 135.746 305.53 135.746C315.41 135.746 324.258 134.905 332.075 133.222V102.951ZM123.66 134.477C127.511 126.837 132.677 120.415 139.158 115.209C146.229 109.413 154.402 105.066 163.676 102.168C165.678 101.542 167.715 100.984 169.787 100.493H186.234V134.477L123.66 134.477ZM261.237 126.638C254.717 123.305 249.375 119.148 245.21 114.166C243.891 112.557 242.716 110.88 241.686 109.136C248.244 112.903 253.772 117.478 258.27 122.86C259.315 124.089 260.304 125.348 261.237 126.638ZM362.999 205C357.898 207.203 348.999 217.5 348.999 217.5L355.499 204C343.143 199.424 340.42 190.659 338.898 185.756C338.757 185.302 338.626 184.881 338.499 184.5C337.999 182 338.499 172.743 339.499 168.5C339.499 168.5 341.833 162.173 344.499 158C347.281 153.711 354.999 146 354.999 146C365.486 130.337 362.999 116 362.999 116C370.07 116 382.999 140 382.999 141.5C381.166 154.329 383.318 157.081 388.119 163.223L388.119 163.224C388.557 163.784 389.018 164.373 389.499 165C392.281 169.173 393.999 177 393.999 177L394.999 180.5V186L389.499 195.5L388.499 202.152L386.499 207L383.499 202.152C383.319 202.254 383.139 202.387 382.932 202.54C381.409 203.662 378.4 205.88 362.999 205Z" fill="black"/>
<path fill-rule="evenodd" clip-rule="evenodd" d="M382.27 162.4C381.13 156.935 380.257 153.19 380.257 153.19C380.257 153.19 380.169 156.632 378.3 162.114C376.359 167.808 373.484 175.728 369.5 184.253C368.005 187.451 364.732 193.534 361.427 199.148C356.175 208.069 349.736 216.588 349.736 216.588C349.736 216.588 356.805 208.138 364.26 201.589C368.977 197.445 373.849 194.063 377.184 194.063C379.65 194.063 381.472 195.001 382.813 196.297C385.813 199.199 386.403 203.897 386.403 203.897C387.466 202.65 387.672 199.111 387.369 194.444C386.767 185.167 384.154 171.434 382.27 162.4ZM379.234 170.908C379.636 173 380.038 175.181 380.421 177.382C381.208 181.902 381.903 186.443 382.345 190.453C380.874 189.809 379.163 189.414 377.184 189.414C375.165 189.414 373.23 190.053 371.591 190.807C371.052 191.056 370.512 191.332 369.973 191.63C371.133 189.519 372.113 187.646 372.79 186.197C375.356 180.707 377.502 175.478 379.234 170.908ZM360.673 110.737L363.836 113.947C373.212 123.459 379.061 130.619 382.134 137.379C384.762 143.161 383.979 148.586 383.268 151.205V154.05C383.767 154.812 384.464 155.908 385.166 157.013L385.243 157.133C386.108 158.494 386.973 159.852 387.516 160.668C388.571 162.25 390.734 166.075 392.634 170.254C393.586 172.35 394.486 174.564 395.151 176.655C395.808 178.722 396.268 180.77 396.268 182.5C396.268 187.891 393.876 191.673 390.266 196.258C390.259 197.3 390.231 198.7 390.166 200.023C390.128 200.803 390.076 201.571 390.007 202.231C389.941 202.851 389.848 203.503 389.691 203.974C389.422 204.781 388.949 205.548 388.522 206.139C388.087 206.743 387.635 207.254 387.329 207.56L385.122 209.767L384.777 206.665C384.698 205.957 384.531 204.81 384.29 203.708C384.245 203.503 384.2 203.309 384.154 203.125C381.435 205.218 377.891 206.202 374.487 206.599C370.252 207.094 365.945 206.714 362.985 206.173C362.909 206.159 362.833 206.145 362.759 206.13L350.209 218.96L347.195 217L354.565 205.217C350.556 203.4 346.848 200.533 345.302 199.148C340.161 195.088 337.948 189.32 337.056 184.253C336.16 179.169 336.563 174.628 336.779 172.822C337.298 168.476 339.695 163.765 342.101 159.981C344.527 156.167 347.1 153.086 348.189 151.958C350.15 149.927 353.776 145.419 355.581 143.083C357.469 140.639 358.443 139.029 359.107 137.618C359.597 136.576 359.921 135.648 360.324 134.495C360.484 134.035 360.657 133.54 360.858 132.987C361.476 131.289 362.625 125.053 361.282 115.202L360.673 110.737ZM384.858 162.087C387.278 173.96 388.858 182.381 389.881 191.773C392.121 188.579 393.268 185.929 393.268 182.5C393.268 181.23 392.916 179.528 392.292 177.563C391.675 175.623 390.825 173.524 389.902 171.495C388.052 167.425 385.965 163.749 385.02 162.332C384.968 162.255 384.914 162.173 384.858 162.087ZM380.371 150.425C380.972 148.216 381.646 143.557 379.402 138.62C376.886 133.084 372.261 127.076 364.72 119.166C365.305 126.89 364.388 132.059 363.678 134.012C363.51 134.475 363.354 134.92 363.202 135.356C362.779 136.568 362.383 137.703 361.821 138.896C361.036 140.563 359.93 142.361 357.955 144.917C356.155 147.247 352.437 151.878 350.347 154.042C349.411 155.011 346.961 157.93 344.633 161.591C342.285 165.283 340.194 169.524 339.757 173.178C339.557 174.852 339.188 179.062 340.01 183.733C340.834 188.407 342.82 193.382 347.195 196.82L347.234 196.851L347.271 196.885C348.735 198.202 352.435 201.046 356.229 202.673L357.612 200.737C356.93 198.255 356.937 194.949 357.372 191.653C357.86 187.954 358.922 184.025 360.411 180.861C361.774 177.965 365.606 170.869 370.123 165.531C374.359 160.525 378.662 153.478 380.371 150.425ZM360.074 196.491C360.046 195.146 360.136 193.639 360.346 192.046C360.802 188.595 361.791 184.974 363.125 182.138C364.429 179.368 368.13 172.53 372.413 167.469C373.096 166.662 373.778 165.807 374.451 164.927C370.058 178.283 365.913 186.048 360.074 196.491ZM382.866 200.296C382.408 199.659 381.789 198.952 381.057 198.368C379.942 197.478 378.741 197.005 377.52 197.213C375.623 197.535 372.852 199.024 370.171 200.874C368.817 201.808 367.564 202.779 366.546 203.639C368.852 203.865 371.526 203.925 374.14 203.62C377.605 203.215 380.745 202.197 382.866 200.296Z" fill="black"/>
</svg>
